<svg width="838" height="173" xmlns="http://www.w3.org/2000/svg">

  <g>
    <g transform="rotate(5 103.512 91.6583)" id="svg_39">
      <g id="svg_31" stroke="null" transform="rotate(-1.08082 126.239 49.6584)">
        <path id="svg_30" stroke="null" fill="#dbdbdb"
          d="m110.6754,73.31756c-9.34695,1.47943 -15.2222,0 -15.2222,0s21.09744,-17.9646 24.56915,-19.44406s15.2222,2.9589 15.2222,2.9589s-5.34113,-9.93338 -3.7388,-12.04688s24.56915,-19.44403 24.56915,-19.44403s2.13644,4.64967 0,12.04687s-13.35278,16.27383 -13.35278,16.27383l7.7446,0.2113s-1.33527,6.97452 -5.60815,10.35608c-5.34113,4.22696 -13.08575,4.43832 -13.08575,4.43832l-0.26706,-6.12909c-0.26706,0.21136 -11.4834,9.29934 -20.83035,10.77874z" />
      </g>
      <g id="svg_33" stroke="null" transform="rotate(-1.08082 43.2388 95.6584)">
        <path id="svg_32" stroke="null" fill="#dbdbdb"
          d="m27.67539,119.31756c-9.34695,1.47943 -15.22219,0 -15.22219,0s21.09744,-17.9646 24.56915,-19.44406s15.2222,2.95889 15.2222,2.95889s-5.34113,-9.93338 -3.7388,-12.04688s24.56915,-19.44403 24.56915,-19.44403s2.13644,4.64969 0,12.04688s-13.35278,16.27383 -13.35278,16.27383l7.74461,0.2113s-1.33527,6.97452 -5.60816,10.35608c-5.34112,4.22696 -13.08575,4.43832 -13.08575,4.43832l-0.26706,-6.12909c-0.26704,0.21136 -11.4834,9.29935 -20.83036,10.77875z" />
      </g>
      <path transform="rotate(-1.08082 65.2388 45.6584)" id="svg_34" stroke="null" fill="#dbdbdb"
        d="m49.67539,69.31756c-9.34695,1.47943 -15.22218,0 -15.22218,0s21.09743,-17.9646 24.56915,-19.44406s15.2222,2.9589 15.2222,2.9589s-5.34113,-9.93338 -3.7388,-12.04688s24.56915,-19.44403 24.56915,-19.44403s2.13644,4.64967 0,12.04687s-13.35278,16.27384 -13.35278,16.27384l7.7446,0.2113s-1.33527,6.97452 -5.60815,10.35608c-5.34112,4.22696 -13.08575,4.43833 -13.08575,4.43833l-0.26706,-6.12909c-0.26706,0.21136 -11.4834,9.29934 -20.83036,10.77874z" />
      <g id="svg_36" stroke="null" transform="rotate(-1.08082 44.2388 137.658)">
        <path id="svg_35" stroke="null" fill="#dbdbdb"
          d="m28.67539,161.31757c-9.34695,1.47943 -15.22219,0 -15.22219,0s21.09744,-17.9646 24.56915,-19.44406s15.2222,2.95889 15.2222,2.95889s-5.34113,-9.93338 -3.7388,-12.04688s24.56915,-19.44404 24.56915,-19.44404s2.13644,4.64969 0,12.04688s-13.35278,16.27384 -13.35278,16.27384l7.74461,0.2113s-1.33527,6.97452 -5.60816,10.35608c-5.34112,4.22696 -13.08575,4.43832 -13.08575,4.43832l-0.26706,-6.12909c-0.26706,0.21136 -11.4834,9.29935 -20.83036,10.77875z" />
      </g>
      <g id="svg_38" stroke="null">
        <path id="svg_37" stroke="null" fill="#dbdbdb"
          d="m148.6754,74.31756c-9.34695,1.47943 -15.2222,0 -15.2222,0s21.09744,-17.9646 24.56915,-19.44406s15.2222,2.9589 15.2222,2.9589s-5.34113,-9.93338 -3.7388,-12.04688s24.56915,-19.44403 24.56915,-19.44403s2.13644,4.64967 0,12.04687s-13.35278,16.27383 -13.35278,16.27383l7.7446,0.2113s-1.33527,6.97452 -5.60815,10.35608c-5.34113,4.22696 -13.08575,4.43832 -13.08575,4.43832l-0.26706,-6.12908c-0.26706,0.21136 -11.4834,9.29934 -20.83035,10.77874z" />
      </g>
    </g>
    <!-- <g transform="rotate(-3 731.157 89.2681)" id="svg_40">
   <g stroke="null" transform="rotate(70.9192 792.479 95.2939)">
    <path stroke="null" fill="#dbdbdb" d="m776.91608,118.95312c-9.34692,1.47943 -15.22217,0 -15.22217,0s21.09741,-17.9646 24.56915,-19.44405s15.22217,2.95888 15.22217,2.95888s-5.34113,-9.93338 -3.73883,-12.04688s24.56915,-19.44402 24.56915,-19.44402s2.13647,4.64967 0,12.04686s-13.35278,16.27383 -13.35278,16.27383l7.74463,0.21132s-1.33527,6.97452 -5.60815,10.35606c-5.34113,4.22697 -13.08575,4.43832 -13.08575,4.43832l-0.26709,-6.12909c-0.26703,0.21136 -11.48334,9.29935 -20.83032,10.77875z"/>
   </g>
   <g id="svg_18" stroke="null" transform="rotate(70.9192 690.082 41.571)">
    <path id="svg_17" stroke="null" fill="#dbdbdb" d="m674.51904,65.23025c-9.34692,1.47943 -15.22217,0 -15.22217,0s21.09747,-17.9646 24.56915,-19.44406s15.22223,2.95889 15.22223,2.95889s-5.34119,-9.93338 -3.73883,-12.04687s24.56915,-19.44403 24.56915,-19.44403s2.13641,4.64969 0,12.04688s-13.35278,16.27383 -13.35278,16.27383l7.74463,0.2113s-1.33533,6.97452 -5.60822,10.35608c-5.34106,4.22696 -13.08569,4.43832 -13.08569,4.43832l-0.26709,-6.12909c-0.26703,0.21137 -11.4834,9.29935 -20.83038,10.77875z"/>
   </g>
   <path transform="rotate(70.9192 756.434 40.0434)" id="svg_19" stroke="null" fill="#dbdbdb" d="m740.87024,63.70264c-9.34692,1.47944 -15.22217,0 -15.22217,0s21.09741,-17.9646 24.56915,-19.44406s15.22217,2.9589 15.22217,2.9589s-5.34106,-9.93338 -3.73877,-12.04688s24.56915,-19.44403 24.56915,-19.44403s2.13641,4.64969 0,12.04688s-13.35278,16.27383 -13.35278,16.27383l7.74457,0.2113s-1.33521,6.97452 -5.60815,10.35608c-5.34106,4.22696 -13.08569,4.43833 -13.08569,4.43833l-0.26709,-6.12909c-0.26709,0.21136 -11.4834,9.29934 -20.83038,10.77874z"/>
   <g id="svg_22" stroke="null" transform="rotate(70.9192 666.447 80.5008)">
    <path id="svg_21" stroke="null" fill="#dbdbdb" d="m650.88373,104.16003c-9.34698,1.47943 -15.22223,0 -15.22223,0s21.09747,-17.96461 24.56915,-19.44406s15.22217,2.95889 15.22217,2.95889s-5.34113,-9.93338 -3.73877,-12.04688s24.56915,-19.44405 24.56915,-19.44405s2.13641,4.64971 0,12.04689s-13.35278,16.27383 -13.35278,16.27383l7.74457,0.2113s-1.33521,6.9745 -5.60815,10.35608c-5.34106,4.22696 -13.08575,4.43832 -13.08575,4.43832l-0.26703,-6.12909c-0.26703,0.21136 -11.4834,9.29933 -20.83032,10.77875z"/>
   </g>
   <g transform="rotate(72 796.271 138.743)" id="svg_24" stroke="null">
    <path id="svg_23" stroke="null" fill="#dbdbdb" d="m780.7077,162.40233c-9.34692,1.47942 -15.22223,0 -15.22223,0s21.09747,-17.96461 24.56915,-19.44408s15.22217,2.95891 15.22217,2.95891s-5.34106,-9.9334 -3.73871,-12.04689s24.56909,-19.44404 24.56909,-19.44404s2.13641,4.6497 0,12.04688s-13.35284,16.27384 -13.35284,16.27384l7.74463,0.2113s-1.33521,6.97453 -5.60815,10.35608c-5.34106,4.22696 -13.08575,4.43834 -13.08575,4.43834l-0.26697,-6.12909c-0.26715,0.21136 -11.48346,9.29933 -20.83038,10.77875z"/>
   </g>
  </g> -->

  </g>
</svg>